<svg id="Layer_1" data-name="Layer 1" xmlns="http://www.w3.org/2000/svg" xmlns:xlink="http://www.w3.org/1999/xlink" viewBox="0 0 674.97 77.92"><defs><style>.cls-1{fill:url(#Gradient_Ecosistema_RBG_2);}.cls-2{fill:url(#Gradient_Ecosistema_RBG_2-2);}.cls-3{fill:url(#Gradient_Ecosistema_RBG_2-3);}.cls-4{fill:url(#Gradient_Ecosistema_RBG_2-5);}.cls-5{fill:url(#Gradient_Ecosistema_RBG_2-6);}.cls-6{fill:#003e48;}.cls-7{fill:url(#Degradado_sin_nombre_4);}.cls-8{fill:url(#Degradado_sin_nombre_4-2);}.cls-9{fill:url(#Degradado_sin_nombre_4-3);}.cls-10{fill:url(#Degradado_sin_nombre_4-4);}.cls-11{fill:url(#Degradado_sin_nombre_4-5);}.cls-12{fill:url(#Degradado_sin_nombre_4-6);}.cls-13{fill:url(#Degradado_sin_nombre_4-8);}.cls-14{fill:url(#Degradado_sin_nombre_4-9);}.cls-15{fill:url(#Degradado_sin_nombre_4-10);}.cls-16{fill:url(#Degradado_sin_nombre_4-11);}.cls-17{fill:#00485b;}.cls-18{fill:url(#Gradient_Ecosistema_RBG_2-7);}.cls-19{fill:url(#Gradient_Ecosistema_RBG_2-8);}.cls-20{fill:url(#Gradient_Ecosistema_RBG_2-9);}.cls-21{fill:#004c58;}</style><linearGradient id="Gradient_Ecosistema_RBG_2" x1="312.58" y1="42.53" x2="312.58" y2="92.52" gradientUnits="userSpaceOnUse"><stop offset="0.14" stop-color="#84bd00"/><stop offset="0.59" stop-color="#2784b7"/></linearGradient><linearGradient id="Gradient_Ecosistema_RBG_2-2" x1="305.03" y1="42.53" x2="305.03" y2="92.52" xlink:href="#Gradient_Ecosistema_RBG_2"/><linearGradient id="Gradient_Ecosistema_RBG_2-3" x1="320.21" y1="42.53" x2="320.21" y2="92.52" xlink:href="#Gradient_Ecosistema_RBG_2"/><linearGradient id="Gradient_Ecosistema_RBG_2-5" x1="319.77" y1="42.53" x2="319.77" y2="92.52" xlink:href="#Gradient_Ecosistema_RBG_2"/><linearGradient id="Gradient_Ecosistema_RBG_2-6" x1="305.39" y1="42.53" x2="305.39" y2="92.52" xlink:href="#Gradient_Ecosistema_RBG_2"/><linearGradient id="Degradado_sin_nombre_4" x1="587.81" y1="44.98" x2="587.81" y2="85.68" gradientUnits="userSpaceOnUse"><stop offset="0.14" stop-color="#7eaf00"/><stop offset="0.59" stop-color="#4689be"/></linearGradient><linearGradient id="Degradado_sin_nombre_4-2" x1="582.47" y1="44.98" x2="582.47" y2="85.68" xlink:href="#Degradado_sin_nombre_4"/><linearGradient id="Degradado_sin_nombre_4-3" x1="561.96" y1="44.98" x2="561.96" y2="85.68" xlink:href="#Degradado_sin_nombre_4"/><linearGradient id="Degradado_sin_nombre_4-4" x1="567.3" y1="44.98" x2="567.3" y2="85.68" xlink:href="#Degradado_sin_nombre_4"/><linearGradient id="Degradado_sin_nombre_4-5" x1="574.89" y1="44.98" x2="574.89" y2="85.68" xlink:href="#Degradado_sin_nombre_4"/><linearGradient id="Degradado_sin_nombre_4-6" x1="574.89" y1="44.98" x2="574.89" y2="85.68" gradientTransform="translate(29.8 -130.4) rotate(13.28)" xlink:href="#Degradado_sin_nombre_4"/><linearGradient id="Degradado_sin_nombre_4-8" x1="437.71" y1="39.67" x2="437.71" y2="94.12" xlink:href="#Degradado_sin_nombre_4"/><linearGradient id="Degradado_sin_nombre_4-9" x1="437.71" y1="39.67" x2="437.71" y2="94.12" xlink:href="#Degradado_sin_nombre_4"/><linearGradient id="Degradado_sin_nombre_4-10" x1="429.76" y1="39.67" x2="429.76" y2="94.12" xlink:href="#Degradado_sin_nombre_4"/><linearGradient id="Degradado_sin_nombre_4-11" x1="445.67" y1="39.67" x2="445.67" y2="94.12" xlink:href="#Degradado_sin_nombre_4"/><linearGradient id="Gradient_Ecosistema_RBG_2-7" x1="140.11" y1="11.81" x2="134.5" y2="59.99" xlink:href="#Gradient_Ecosistema_RBG_2"/><linearGradient id="Gradient_Ecosistema_RBG_2-8" x1="120.75" y1="9.55" x2="115.13" y2="57.73" xlink:href="#Gradient_Ecosistema_RBG_2"/><linearGradient id="Gradient_Ecosistema_RBG_2-9" x1="144.35" y1="12.12" x2="138.71" y2="60.53" xlink:href="#Gradient_Ecosistema_RBG_2"/></defs><circle class="cls-1" cx="312.58" cy="71.6" r="2.3"/><circle class="cls-2" cx="305.03" cy="58.57" r="2.3"/><circle class="cls-3" cx="320.21" cy="58.57" r="2.3"/><path class="cls-1" d="M322.6,72.85l-7.82-4.52a4.1,4.1,0,0,0-4.27,0l-8,4.51V69.45l6.4-3.63,0,0a7.46,7.46,0,0,1,3.58-1,8,8,0,0,1,3.78,1l6.25,3.62Z"/><path class="cls-4" d="M316.23,49.27v9a4.1,4.1,0,0,0,2.14,3.7l7.89,4.64-2.94,1.69L317,64.61l0,0a7.43,7.43,0,0,1-2.65-2.6,8,8,0,0,1-1-3.78V51Z"/><path class="cls-5" d="M308.92,49.27v9a4.11,4.11,0,0,1-2.13,3.7l-7.89,4.64,2.94,1.69,6.34-3.72,0,0a7.48,7.48,0,0,0,2.64-2.6,8,8,0,0,0,1-3.78V51Z"/><path class="cls-6" d="M330.76,62.42v0a6,6,0,0,1,6.15-6.1,6.06,6.06,0,0,1,4.65,1.82L339.91,60a4.38,4.38,0,0,0-3-1.33,3.5,3.5,0,0,0-3.42,3.67v0a3.5,3.5,0,0,0,3.42,3.7,4.21,4.21,0,0,0,3.1-1.38l1.66,1.67a6,6,0,0,1-4.84,2.11A6,6,0,0,1,330.76,62.42Z"/><path class="cls-6" d="M343.72,56.49h8.89V58.8H346.3v2.39h5.56V63.5H346.3V66h6.4v2.3h-9Z"/><path class="cls-6" d="M355,56.49h2.79l3.1,5,3.1-5h2.8V68.28h-2.58V60.59l-3.32,5h-.06l-3.29-5v7.64H355Z"/><path class="cls-6" d="M369.63,56.49h4.6c3.71,0,6.27,2.55,6.27,5.86v0c0,3.32-2.56,5.89-6.27,5.89h-4.6Zm2.6,2.34v7.11h2a3.36,3.36,0,0,0,3.56-3.52v0a3.4,3.4,0,0,0-3.56-3.56Z"/><path class="cls-6" d="M382.28,62.42v0a6.11,6.11,0,0,1,6.29-6.1,6,6,0,0,1,6.25,6.06v0a6.27,6.27,0,0,1-12.54,0Zm9.83,0v0a3.59,3.59,0,0,0-3.57-3.71A3.53,3.53,0,0,0,385,62.35v0a3.58,3.58,0,0,0,3.57,3.7A3.53,3.53,0,0,0,392.11,62.42Z"/><path class="cls-6" d="M397.13,56.49H406V58.8h-6.31v2.39h5.56V63.5h-5.56V66h6.4v2.3h-9Z"/><path class="cls-6" d="M601.34,56.9h2.32l4.91,11.54h-2.63l-1.05-2.57H600l-1,2.57h-2.56ZM604,63.64l-1.53-3.71-1.52,3.71Z"/><path class="cls-6" d="M610.34,56.89h5.24a4.56,4.56,0,0,1,3.34,1.17,3.68,3.68,0,0,1,1,2.64v0a3.57,3.57,0,0,1-2.46,3.57l2.8,4.13H617.3l-2.46-3.7h-2v3.7h-2.52Zm5.07,5.61c1.23,0,1.93-.66,1.93-1.63v0c0-1.08-.75-1.65-2-1.65h-2.5V62.5Z"/><path class="cls-6" d="M622.29,56.89h2.52V68.44h-2.52Z"/><path class="cls-6" d="M627.49,63.49v-6.6H630v6.53c0,1.88.94,2.86,2.48,2.86s2.47-.94,2.47-2.77V56.89h2.52v6.52c0,3.49-2,5.21-5,5.21S627.49,66.89,627.49,63.49Z"/><path class="cls-6" d="M640.05,56.89h2.71l3,4.88,3-4.88h2.72V68.44H649V60.9l-3.22,4.93h-.07L642.52,61v7.49h-2.47Z"/><path class="cls-7" d="M587.59,64.71a3.48,3.48,0,0,1,0-3.78l4.21-7h-3.16l0,0v0l-4.21,7a3.46,3.46,0,0,0,0,3.78l4.22,6.9h3.19Z"/><path class="cls-8" d="M582.23,60.93l4.21-7h-3.17l-4.21,7a3.46,3.46,0,0,0,0,3.78l.73,1.19a1.14,1.14,0,0,0,.1.19l3.37,5.52h3.19l-4.22-6.9A3.46,3.46,0,0,1,582.23,60.93Z"/><path class="cls-9" d="M565.38,64.71a3.48,3.48,0,0,0,0-3.78l-4.22-7v0l0,0H558l4.21,7a3.46,3.46,0,0,1,0,3.78L558,71.61h3.2Z"/><path class="cls-10" d="M566.5,53.9h-3.17l4.21,7a3.46,3.46,0,0,1,0,3.78l-4.21,6.9h3.18l3.37-5.52a1.14,1.14,0,0,0,.1-.19l.73-1.19a3.46,3.46,0,0,0,0-3.78Z"/><circle class="cls-11" cx="574.89" cy="57.72" r="2.13"/><circle class="cls-12" cx="574.89" cy="62.76" r="2.13" transform="translate(0.96 133.76) rotate(-13.28)"/><circle class="cls-11" cx="574.89" cy="67.79" r="2.13"/><path class="cls-6" d="M460.46,56.38h2.39l5.06,11.89H465.2l-1.08-2.65h-5l-1.08,2.65H455.4Zm2.73,6.95-1.57-3.83-1.56,3.83Z"/><path class="cls-6" d="M469.73,56.47h2.6v9.44h5.88v2.36h-8.48Z"/><path class="cls-6" d="M480.17,56.47h2.59v9.44h5.89v2.36h-8.48Z"/><path class="cls-6" d="M490.6,56.47h8.9v2.31h-6.32v2.39h5.56v2.31h-5.56V66h6.41v2.31h-9Z"/><path class="cls-6" d="M501.37,62.4v0a6.06,6.06,0,0,1,6.19-6.1,6.51,6.51,0,0,1,4.64,1.61l-1.64,2a4.34,4.34,0,0,0-3.08-1.2,3.55,3.55,0,0,0-3.39,3.68v0a3.53,3.53,0,0,0,3.57,3.74,4.1,4.1,0,0,0,2.45-.71V63.72h-2.62V61.48h5.13V66.6a7.66,7.66,0,0,1-5,1.87A5.91,5.91,0,0,1,501.37,62.4Z"/><path class="cls-6" d="M515.11,56.47h5.4a4.7,4.7,0,0,1,3.44,1.2,3.71,3.71,0,0,1,1,2.69v0a3.65,3.65,0,0,1-2.53,3.65l2.88,4.22h-3l-2.53-3.78h-2v3.78h-2.6Zm5.23,5.73c1.26,0,2-.67,2-1.67v0c0-1.12-.78-1.69-2-1.69h-2.58V62.2Z"/><path class="cls-6" d="M531.35,56.38h2.39l5.06,11.89h-2.72L535,65.62h-5l-1.08,2.65h-2.65Zm2.73,6.95-1.57-3.83-1.57,3.83Z"/><circle class="cls-13" cx="437.71" cy="46.95" r="2.21"/><path class="cls-14" d="M437.7,50.3l-4.61,3v18l2.85,1.81V54.66s0-.06,0-.09l1.76-1.12,1.76,1.09V73.09l2.86-1.81v-18Z"/><polyline class="cls-15" points="431.2 54.47 431.2 70.05 428.32 68.24 428.32 56.31"/><polyline class="cls-16" points="444.22 54.47 444.22 70.05 447.11 68.24 447.11 56.31"/><path class="cls-17" d="M134.76,56.15h2.7V68.41h-2.7Z"/><path class="cls-17" d="M140.52,56.15H143l5.74,7.55V56.15h2.66V68.41h-2.29l-5.93-7.79v7.79h-2.67Z"/><path class="cls-17" d="M157.21,58.64h-3.73V56.15h10.16v2.49h-3.73v9.77h-2.7Z"/><path class="cls-17" d="M165.7,56.15H175v2.4h-6.57V61h5.78v2.39h-5.78V66H175v2.4H165.7Z"/><path class="cls-17" d="M176.89,62.31v0a6.3,6.3,0,0,1,6.43-6.34,6.75,6.75,0,0,1,4.81,1.68l-1.7,2.05a4.48,4.48,0,0,0-3.2-1.24,3.68,3.68,0,0,0-3.52,3.81v0a3.67,3.67,0,0,0,3.71,3.89,4.31,4.31,0,0,0,2.54-.74V63.68h-2.71V61.35h5.32v5.32a7.94,7.94,0,0,1-5.23,2A6.14,6.14,0,0,1,176.89,62.31Z"/><path class="cls-17" d="M191.16,56.15h5.61a4.88,4.88,0,0,1,3.57,1.25,3.84,3.84,0,0,1,1,2.8v0a3.81,3.81,0,0,1-2.63,3.8l3,4.38H198.6L196,64.49h-2.12v3.92h-2.7Zm5.43,6c1.31,0,2.07-.7,2.07-1.73v0c0-1.16-.81-1.75-2.12-1.75h-2.68V62.1Z"/><path class="cls-17" d="M208,56.07h2.49l5.25,12.34h-2.82l-1.12-2.75h-5.18l-1.12,2.75h-2.75Zm2.84,7.21-1.63-4-1.63,4Z"/><path class="cls-18" d="M137.31,46.44c-2.18-1.08-4.68-.48-5.58,1.33s.15,4.16,2.34,5.24,4.69.49,5.59-1.33S139.5,47.52,137.31,46.44Z"/><path class="cls-19" d="M120.59,25.82c.57-1.42.43-2.82-.31-3.12s-1.81.61-2.38,2a3.9,3.9,0,0,0-.28,2.3h0v0s0,0,0,.06a6,6,0,0,1-1.17,4.61h0a6,6,0,0,0-.84,3.26c0,2.28,1,4.12,2.15,4.12s2.15-1.84,2.15-4.12a6,6,0,0,0-.84-3.26h0a3.75,3.75,0,0,1,.59-4.47h0A4.87,4.87,0,0,0,120.59,25.82Z"/><path class="cls-20" d="M128.74,14.59h0l0,0h0c3.08-1.59,3.67.48,3.67.48.56,1.53,2.61,2.2,5.14,1.67a5.53,5.53,0,0,0,3.87-2.44h0c1.32-2.78,4.65-1.79,4.67-1.79a12.34,12.34,0,0,0,2,.48,12.94,12.94,0,0,0,2.41.17h0c4.45.1,5.27,3.52,5.27,3.52h0a7.41,7.41,0,0,0,2.4,3.21c2.07,1.7,4.44,2.25,5.28,1.22s-.16-3.24-2.23-4.94a8.08,8.08,0,0,0-2.91-1.58h0c-3.82-1-4.81-3-4.81-3h0C153,10.2,151.45,9.41,148.92,9c-2.85-.45-4.71.16-5.65,1.26a4.36,4.36,0,0,1-3.83,1.17h0a7.63,7.63,0,0,0-5.31,1h0c-3.45,1.68-3.82.37-3.82.37-.24-.46-1.74-.14-3.33.72s-2.69,1.85-2.44,2.38c.12.27.37.36.81.31,1-.16,1.05.93.34,1.36,0,0-.38.28-.66.52-1.32,1.18-1.83,2.93-.91,3.84.27.26,2.21,2.29-.8,5.16h0A4.69,4.69,0,0,0,122,29.25a4.25,4.25,0,0,0,.63,3.76h0a4.46,4.46,0,0,1-.44,5.85l-.08.08,0,.05h0a4.82,4.82,0,0,0-1,4.52c.61,2.46,2.68,4.06,4.62,3.58a3.75,3.75,0,0,0,2.56-3.66s0,.25,0,0,.51-4.18,4.54-2.46l0,0a5.38,5.38,0,0,0,1.94.41,4.8,4.8,0,0,0,4.77-4.12h0c.19-1.52,1.75-4.1,4.73-2.34,1.63,1,2.28,3.77-.41,5.45a3.42,3.42,0,0,0-1.36,1.57,4.31,4.31,0,0,0,7.87,3.39,3.87,3.87,0,0,0-1.16-4.4h0s-3.62-2.93.35-6.17h0a4.75,4.75,0,0,0,2.34-4,4.67,4.67,0,0,0-1.72-3.6h0s-3.55-2.87-.22-4.74a2.5,2.5,0,0,1,.75-.24c3.84-.69,3.76,4,3.76,4h0a6.15,6.15,0,0,0,1.39,3.55c1.72,2.17,4.35,2.95,5.88,1.74s1.38-3.95-.34-6.13a5.48,5.48,0,0,0-4.09-2.3h0c-3.54-.24-4.62-3.92-4.7-4.26v0h0a4.76,4.76,0,0,0-2.94-3.17c-2.11-.86-4.36-.31-5.27,1.2h0c-.07.12-.13.25-.19.38a5.46,5.46,0,0,1-6.2,3.09h0a5.07,5.07,0,0,0-3.38.08h0l-.11,0c-.7.29-4.5,1.69-5.1-1.65h0l0-.16a1.24,1.24,0,0,0-.31-.65,1.81,1.81,0,0,0-.84-.53C126.37,16.41,128,15,128.74,14.59Zm5,12.61h0a4.91,4.91,0,0,0,3.57-.35A5.22,5.22,0,0,0,140,23.63c.31-1.75,3-4.8,5.77-2.32a2.91,2.91,0,0,1-1,5h0a4.89,4.89,0,0,0-3,3.51h0s-.79,4-5.47,2.2h0a4.81,4.81,0,0,0-6.29,3.9h0s-.72,4.37-3.67,2.95-.33-5,.12-5.48h0A5.84,5.84,0,0,0,128,30.9a3.15,3.15,0,0,0,.09-.42C128.43,29.34,129.66,26.31,133.78,27.2Zm-2.71-5c.81,1,.44,2.63-.84,3.72s-3,1.18-3.8.22-.45-2.63.84-3.72S130.25,21.22,131.07,22.18Z"/><path class="cls-21" d="M27.12,66.66a1.64,1.64,0,0,1-1.77,1.85A1.62,1.62,0,0,1,23.6,66.7V64.33h.73v2.34c0,.76.39,1.17,1,1.17s1-.38,1-1.14V64.33h.72Z"/><path class="cls-21" d="M31,64.33h.71v4.11h-.6l-2.27-2.92v2.92h-.71V64.33h.67L31,67.17Z"/><path class="cls-21" d="M36.68,68.44h-.76l-.42-1H33.56l-.42,1H32.4l1.81-4.14h.66Zm-2.15-3.28-.71,1.65h1.42Z"/><path class="cls-21" d="M42.19,65H39.87v1.07h2.06v.64H39.87V67.8h2.35v.64H39.15V64.33h3Z"/><path class="cls-21" d="M45.1,67.43h0l-1.29-1.92v2.93h-.71V64.33h.77l1.25,1.94,1.25-1.94h.77v4.11H46.4v-3Z"/><path class="cls-21" d="M49.71,67.12H48.9v1.32h-.73V64.33h1.62a1.39,1.39,0,0,1,1.57,1.38C51.36,66.64,50.62,67.12,49.71,67.12Zm0-2.13H48.9v1.48h.84c.54,0,.88-.3.88-.74S50.28,65,49.74,65Z"/><path class="cls-21" d="M54.73,68.44l-1-1.43h-.9v1.43h-.73V64.33h1.84c.94,0,1.52.5,1.52,1.3a1.23,1.23,0,0,1-1,1.26l1.11,1.55ZM53.87,65h-1v1.38h1c.52,0,.85-.27.85-.69S54.4,65,53.87,65Z"/><path class="cls-21" d="M59.39,65H57.06v1.07h2.06v.64H57.06V67.8h2.36v.64H56.34V64.33h3Z"/><path class="cls-21" d="M61.86,66.06c.87.21,1.32.52,1.32,1.21s-.61,1.23-1.47,1.23A2.56,2.56,0,0,1,60,67.84l.44-.51a1.89,1.89,0,0,0,1.3.53c.44,0,.73-.2.73-.52s-.17-.46-.93-.64-1.37-.47-1.37-1.23a1.25,1.25,0,0,1,1.4-1.2,2.28,2.28,0,0,1,1.5.52l-.39.55a1.85,1.85,0,0,0-1.12-.43c-.42,0-.67.22-.67.5S61.07,65.87,61.86,66.06Z"/><path class="cls-21" d="M67.88,68.44h-.77l-.42-1H64.75l-.42,1h-.74L65.4,64.3h.67Zm-2.16-3.28L65,66.81h1.42Z"/><path class="cls-21" d="M71.87,68.44H70.34V64.33h1.53a2.06,2.06,0,1,1,0,4.11Zm0-3.45h-.81v2.79h.81a1.4,1.4,0,1,0,0-2.79Z"/><path class="cls-21" d="M78,65H75.65v1.07h2.06v.64H75.65V67.8H78v.64H74.93V64.33h3Z"/><path class="cls-21" d="M78.86,64.33h.72v3.45h2.16v.66H78.86Z"/><path class="cls-21" d="M87.3,65H85v1.07H87v.64H85V67.8h2.35v.64H84.25V64.33h3Z"/><path class="cls-21" d="M90.1,68.51a2.13,2.13,0,0,1,0-4.25,2.12,2.12,0,0,1,1.61.64l-.46.53a1.66,1.66,0,0,0-1.15-.51,1.47,1.47,0,0,0,0,2.93,1.62,1.62,0,0,0,1.18-.54l.46.47A2.1,2.1,0,0,1,90.1,68.51Z"/><path class="cls-21" d="M94.36,68.51a2.08,2.08,0,0,1-2.14-2.12,2.15,2.15,0,1,1,2.14,2.12Zm0-3.59a1.47,1.47,0,1,0,1.4,1.47A1.41,1.41,0,0,0,94.36,64.92Z"/><path class="cls-21" d="M99,66.06c.87.21,1.32.52,1.32,1.21s-.61,1.23-1.47,1.23a2.56,2.56,0,0,1-1.72-.66l.44-.51a1.89,1.89,0,0,0,1.3.53c.44,0,.72-.2.72-.52s-.16-.46-.92-.64-1.37-.47-1.37-1.23a1.25,1.25,0,0,1,1.4-1.2,2.23,2.23,0,0,1,1.49.52l-.38.55a1.85,1.85,0,0,0-1.12-.43c-.42,0-.67.22-.67.5S98.16,65.87,99,66.06Z"/><path class="cls-21" d="M101.88,64.33v4.11h-.72V64.33Z"/><path class="cls-21" d="M104.56,66.06c.87.21,1.32.52,1.32,1.21s-.6,1.23-1.46,1.23a2.54,2.54,0,0,1-1.72-.66l.44-.51a1.87,1.87,0,0,0,1.29.53c.45,0,.73-.2.73-.52s-.16-.46-.93-.64-1.37-.47-1.37-1.23a1.26,1.26,0,0,1,1.41-1.2,2.25,2.25,0,0,1,1.49.52l-.39.55a1.85,1.85,0,0,0-1.11-.43c-.43,0-.67.22-.67.5S103.78,65.87,104.56,66.06Z"/><path class="cls-21" d="M108.38,68.44h-.72V65h-1.31v-.67h3.34V65h-1.31Z"/><path class="cls-21" d="M113.5,65h-2.33v1.07h2.06v.64h-2.06V67.8h2.36v.64h-3.08V64.33h3Z"/><path class="cls-21" d="M116.4,67.43h0l-1.29-1.92v2.93h-.71V64.33h.77l1.25,1.94,1.25-1.94h.77v4.11h-.72v-3Z"/><path class="cls-21" d="M123.41,68.44h-.76l-.42-1h-1.94l-.43,1h-.74l1.81-4.14h.67Zm-2.15-3.28-.71,1.65H122Z"/></svg>